<svg width="24" height="24" viewBox="0 0 24 24" fill="none" xmlns="http://www.w3.org/2000/svg">
<path d="M4 6.75C4 6.33579 4.33579 6 4.75 6H19.25C19.6642 6 20 6.33579 20 6.75C20 7.16421 19.6642 7.5 19.25 7.5H4.75C4.33579 7.5 4 7.16421 4 6.75Z" fill="white"/>
<path d="M4 12.25C4 11.8358 4.33579 11.5 4.75 11.5H19.25C19.6642 11.5 20 11.8358 20 12.25C20 12.6642 19.6642 13 19.25 13H4.75C4.33579 13 4 12.6642 4 12.25Z" fill="white"/>
<path d="M4 17.75C4 17.3358 4.33579 17 4.75 17H19.25C19.6642 17 20 17.3358 20 17.75C20 18.1642 19.6642 18.5 19.25 18.5H4.75C4.33579 18.5 4 18.1642 4 17.75Z" fill="white"/>
</svg>
